<?xml version="1.0" encoding="UTF-8"?>
<svg width="800" height="400" version="1.1" viewBox="0 0 800 400" xmlns="http://www.w3.org/2000/svg">
 <rect width="800" height="400" fill="#f3f4f6"/>
 <g fill="#9ca3af">
  <path d="m370 175h60v10h-60z"/>
  <path d="m350 195h100v10h-100z"/>
  <path d="m365 215h70v10h-70z"/>
 </g>
 <path d="m385 150c-8.2843 0-15-6.7157-15-15s6.7157-15 15-15 15 6.7157 15 15-6.7157 15-15 15zm-35-85c-2.7614 0-5 2.2386-5 5v150c0 2.7614 2.2386 5 5 5h100c2.761 0 5-2.2386 5-5v-150c0-2.7614-2.2386-5-5-5h-100zm95 10v60l-25-30-35 45-25-20-20 25v65h100v-145h-95z" fill="#9ca3af"/>
</svg> 