<svg xmlns="http://www.w3.org/2000/svg" viewBox="0 0 200 200">
  <circle cx="100" cy="100" r="100" fill="#0A2F5B"/>
  <path d="M100 50C72.4 50 50 72.4 50 100C50 127.6 72.4 150 100 150C127.6 150 150 127.6 150 100C150 72.4 127.6 50 100 50ZM100 60C122 60 140 78 140 100C140 122 122 140 100 140C78 140 60 122 60 100C60 78 78 60 100 60ZM110 80C110 80 120 90 120 100C120 110 110 130 110 130C110 130 130 120 130 100C130 80 110 80 110 80ZM90 70C90 70 70 80 70 100C70 120 90 130 90 130C90 130 80 110 80 100C80 90 90 70 90 70Z" fill="#F9B92E" stroke="#F9B92E" stroke-width="2"/>
</svg>
