<svg xmlns="http://www.w3.org/2000/svg" viewBox="0 0 200 200">
  <circle cx="100" cy="100" r="100" fill="#0A2F5B"/>
  <path d="M80 80C85.5 80 90 75.5 90 70C90 64.5 85.5 60 80 60C74.5 60 70 64.5 70 70C70 75.5 74.5 80 80 80ZM120 80C125.5 80 130 75.5 130 70C130 64.5 125.5 60 120 60C114.5 60 110 64.5 110 70C110 75.5 114.5 80 120 80ZM100 100C105.5 100 110 95.5 110 90C110 84.5 105.5 80 100 80C94.5 80 90 84.5 90 90C90 95.5 94.5 100 100 100ZM90 110H110C115.5 110 120 114.5 120 120V140H100V120H90V140H70V120C70 114.5 74.5 110 80 110H90ZM130 110C135.5 110 140 114.5 140 120V140H130V120H120C120 114.5 115.5 110 110 110H130Z" fill="#F9B92E" stroke="#F9B92E" stroke-width="2"/>
</svg>
